<svg width="70" height="58"  viewBox="0 0 70 58" fill="none" xmlns="http://www.w3.org/2000/svg">
<path d="M16.9498 22.7283C19.5509 28.0951 18.9615 33.2682 13.3819 35.5215C10.1221 36.8379 5.84366 34.1761 3.9909 29.5883C2.13814 25.0005 3.59952 18.2524 6.85927 16.936C10.119 15.6195 15.0971 18.1405 16.9498 22.7283Z" fill="#E8DE00"/>
<path d="M32.5289 10.191C34.3275 16.7212 32.6027 22.3772 25.9067 23.7434C21.9946 24.5417 17.765 20.6868 16.6416 15.181C15.5181 9.67516 18.5415 2.43987 22.4535 1.64164C26.3655 0.843417 31.4055 4.68521 32.5289 10.191Z" fill="#E8DE00"/>
<path d="M52.7177 14.1917C52.1649 20.9424 48.6032 25.6624 41.845 24.6467C37.8967 24.0533 35.2477 18.9806 36.0829 13.4237C36.918 7.86687 42.2417 2.10936 46.19 2.70277C50.1382 3.29618 53.5529 8.63482 52.7177 14.1917Z" fill="#E8DE00"/>
<path d="M64.7777 31.1934C62.1523 36.9113 57.5447 39.9013 51.9672 36.8694C48.7087 35.0981 48.0063 29.8287 50.4992 25.2427C52.9922 20.6567 59.4673 17.3202 62.7258 19.0915C65.9843 20.8628 67.2707 26.6073 64.7777 31.1934Z" fill="#E8DE00"/>
<path d="M53.1071 48.881C52.1436 56.2924 48.2885 58.332 39.4975 55.9837C34.6966 54.7012 29.6544 55.7357 24.9339 57.2885C15.25 60.4739 9.26764 52.5654 14.1286 41.4546C18.856 30.6491 23.2343 23.5371 33.3035 23.5371C43.144 24.3411 54.1542 40.826 53.1071 48.881Z" fill="#20C9FF"/>
</svg>


